<?xml version="1.0" encoding="UTF-8" standalone="no"?>
<!DOCTYPE svg PUBLIC "-//W3C//DTD SVG 1.1//EN" "http://www.w3.org/Graphics/SVG/1.1/DTD/svg11.dtd">
<svg width="100%" height="100%" viewBox="0 0 730 201" version="1.1" xmlns="http://www.w3.org/2000/svg" xmlns:xlink="http://www.w3.org/1999/xlink" xml:space="preserve" xmlns:serif="http://www.serif.com/" style="fill-rule:evenodd;clip-rule:evenodd;stroke-linejoin:round;stroke-miterlimit:2;">
    <g transform="matrix(1,0,0,1,0,-251)">
        <g transform="matrix(1.02753,0,0,0.9847,-145.755,-137.873)">
            <rect id="Lower-Case-Trebuchet" serif:id="Lower Case Trebuchet" x="141.85" y="395.822" width="710.442" height="203.108" style="fill:none;"/>
            <g id="Lower-Case-Trebuchet1" serif:id="Lower Case Trebuchet">
                <g transform="matrix(1.2039,0,0,1.25626,-113.424,-140.915)">
                    <clipPath id="_clip1">
                        <path d="M315.674,428.704L315.674,581.985L226.429,581.985L226.429,428.704L315.674,428.704ZM269.111,541.072L263.833,554.374L264.813,555.027C270.266,558.662 276.841,560.5 284.547,560.5C293.364,560.5 300.389,558.174 305.651,553.607C311.016,548.951 313.683,543.275 313.683,536.594C313.683,530.523 312.445,525.528 310.029,521.594C307.613,517.66 303.438,514.241 297.447,511.406L290.633,508.169C286.392,506.122 283.577,504.548 282.206,503.415C280.954,502.379 279.979,501.092 279.278,499.555C278.565,497.994 278.215,496.262 278.215,494.362C278.215,491.338 279.166,488.854 281.11,486.926C283.074,484.979 285.784,484.051 289.208,484.051C291.721,484.051 294.449,484.544 297.393,485.513C300.318,486.476 302.501,487.458 303.928,488.492L305.526,489.651L309.835,476.944L309.066,476.305C305.287,473.162 298.591,471.478 288.924,471.478C281.62,471.478 275.65,473.673 270.994,478.007C266.295,482.382 263.937,487.889 263.937,494.532C263.937,499.949 265.151,504.577 267.538,508.429C269.915,512.265 274.073,515.619 280.067,518.416L286.771,521.541C292.437,524.214 296.029,526.602 297.436,528.865C298.786,531.034 299.462,533.383 299.462,535.911C299.462,539.224 298.283,541.954 295.907,544.095C293.465,546.297 290.22,547.359 286.196,547.359C283.828,547.359 281.149,546.855 278.153,545.869C275.152,544.88 272.642,543.657 270.629,542.183L269.111,541.072Z"/>
                    </clipPath>
                    <g clip-path="url(#_clip1)">
                        <g transform="matrix(1,0,0,1,-2.84217e-14,-6.61461)">
                            <g transform="matrix(1,0,0,1,311.915,466.638)">
                                <path d="M0,-1.256C-17.74,-24.307 -35.528,-21.126 -35.662,-21.143C-52.767,-21.876 -66.505,-3.766 -67.803,0.465C-73.852,15.211 -64.173,23.051 -64.173,23.051L-45.691,10.675C-45.691,10.675 -34.523,2.553 -21.891,-1.391C-6.117,-6.316 -1.189,-2.569 0,-1.256" style="fill:rgb(125,130,138);"/>
                            </g>
                            <g transform="matrix(1,0,0,1,312.05,470.21)">
                                <path d="M0,-1.117C-2.577,-7.254 -12.924,-5.182 -12.924,-5.182C-12.924,-5.182 -7.204,6.137 -7.276,6.129C1.804,4.183 0.073,-1.109 0,-1.117" style="fill:rgb(125,130,138);"/>
                            </g>
                        </g>
                        <g transform="matrix(1.16104,0,0,1.10314,286.812,462.847)">
                            <path d="M0,55.002L15.668,7.326L14.955,7.091L1.075,49.326L10.523,-0.542L9.786,-0.681L0.741,47.064L5.505,-0.238L4.759,-0.312L-0.118,48.103L-0.089,1.95L-0.839,1.95L-0.873,55.613L-0.498,55.613L-0.129,55.683L0,55.002Z" style="fill:rgb(125,130,138);fill-rule:nonzero;"/>
                        </g>
                        <g transform="matrix(1.05936,0,0,1.03071,277.27,468.263)">
                            <path d="M0,51.655L-11.562,-0.493L-12.294,-0.331L-1.817,46.923L-16.663,4.821L-17.37,5.071L-2.391,47.551L-21.535,9.227L-22.206,9.563L-3.479,47.051L-26.616,12.927L-27.237,13.347L-0.93,52.148L-0.619,51.938L-0.284,51.77L-0.307,51.722L0,51.655Z" style="fill:rgb(125,130,138);fill-rule:nonzero;"/>
                        </g>
                        <g transform="matrix(1,0,0,1,277.945,543.395)">
                            <path d="M0,-19.927C0,-19.927 -1.152,-19.734 -1.407,-19.553C-3.049,-18.389 -1.622,-16.073 -1.622,-16.073C-1.622,-16.073 -1.812,-15.292 -1.814,-15.34C-4.057,-15.097 -3.885,-12.465 -3.888,-12.513C-7.978,-11.862 -6.701,-7.765 -6.602,-7.723C-5.611,-2.117 0.104,-1.435 0.107,-1.387C4.257,0.36 6.8,-2.641 6.8,-2.641C6.8,-2.641 7.467,-3.543 7.583,-3.894C7.712,-4.284 7.548,-5.848 7.548,-5.848C7.548,-5.848 8.434,-5.862 8.696,-5.985C8.865,-6.064 9.239,-6.5 9.239,-6.5L10.378,-7.44L11.223,-7.015L13.172,-5.828L14.974,-4.761C14.974,-4.761 15.372,-4.546 15.516,-4.557C15.741,-4.573 16.304,-4.992 16.304,-4.992L17.361,-6.054L17.839,-6.723L18.408,-7.933C18.408,-7.933 18.521,-8.238 18.166,-8.544C17.965,-8.717 17.12,-8.379 17.12,-8.379C17.12,-8.379 17.09,-8.938 16.651,-9.107C16.095,-9.321 15.678,-8.472 15.678,-8.472C15.678,-8.472 15.255,-7.548 14.701,-7.764C14.146,-7.98 12.001,-9.817 12.001,-9.817L10.129,-10.883C10.129,-10.883 9.65,-11.32 9.448,-11.379C8.845,-11.559 6.934,-11.251 6.934,-11.251L6.927,-11.899L8.163,-16.7L8.257,-17.464L8.836,-19.087L8.748,-19.334L7.657,-19.479L7.593,-17.708L6.149,-15.264L5.557,-14.115C5.557,-14.115 4.843,-12.627 4.104,-13.192C4.14,-13.195 1.898,-14.417 1.898,-14.417L1.437,-14.856L1.418,-15.143C1.418,-15.143 2.303,-15.381 1.932,-16.654C1.929,-16.69 1.796,-17.618 1.796,-17.618C1.796,-17.618 3.183,-20.287 0,-19.927" style="fill:rgb(125,130,138);fill-rule:nonzero;"/>
                        </g>
                        <g transform="matrix(-0.933119,0.359569,0.359569,0.933119,274.748,520.762)">
                            <path d="M-2.311,4.878L-0.834,4.878L-1.003,-0.678L-1.878,-0.625L-2.311,4.878Z" style="fill:rgb(125,130,138);fill-rule:nonzero;"/>
                        </g>
                    </g>
                </g>
                <g transform="matrix(0.973208,0,0,1.01554,126.266,-647.235)">
                    <path d="M82.295,1183.67L87.427,1170.73C90.052,1172.65 93.322,1174.26 97.236,1175.55C101.15,1176.83 104.654,1177.48 107.748,1177.48C113.232,1177.48 117.638,1175.98 120.966,1172.98C124.295,1169.98 125.959,1166.16 125.959,1161.52C125.959,1158.05 125.033,1154.83 123.181,1151.85C121.33,1148.87 116.677,1145.63 109.224,1142.11L100.927,1138.24C93.896,1134.96 88.986,1131.07 86.197,1126.57C83.408,1122.07 82.013,1116.66 82.013,1110.33C82.013,1102.64 84.732,1096.27 90.17,1091.2C95.607,1086.14 102.591,1083.61 111.123,1083.61C122.513,1083.61 130.435,1085.46 134.888,1089.17L130.74,1101.4C128.865,1100.04 126.005,1098.73 122.162,1097.46C118.318,1096.2 114.755,1095.57 111.474,1095.57C106.693,1095.57 102.931,1096.92 100.189,1099.64C97.447,1102.36 96.076,1105.85 96.076,1110.12C96.076,1112.74 96.568,1115.13 97.552,1117.29C98.537,1119.45 99.908,1121.25 101.666,1122.7C103.423,1124.16 107.021,1126.2 112.459,1128.82L120.896,1132.83C127.927,1136.16 132.861,1140.13 135.697,1144.75C138.533,1149.37 139.951,1155.24 139.951,1162.36C139.951,1170.1 136.845,1176.66 130.634,1182.05C124.423,1187.44 116.115,1190.13 105.709,1190.13C96.568,1190.13 88.763,1187.98 82.295,1183.67Z" style="fill:rgb(200,206,212);fill-rule:nonzero;"/>
                    <path d="M215.68,1152.03L161.399,1152.03C161.399,1160.84 163.813,1167.61 168.641,1172.35C172.907,1176.47 178.391,1178.53 185.094,1178.53C192.735,1178.53 199.11,1176.31 204.219,1171.85L209.844,1181.49C207.782,1183.55 204.618,1185.33 200.352,1186.83C195.008,1188.8 189.055,1189.78 182.493,1189.78C173.024,1189.78 164.985,1186.57 158.375,1180.15C151.016,1173.07 147.336,1163.56 147.336,1151.6C147.336,1139.18 151.11,1129.22 158.657,1121.72C165.407,1115.02 173.399,1111.67 182.633,1111.67C193.368,1111.67 201.782,1114.69 207.875,1120.74C213.782,1126.55 216.735,1134.26 216.735,1143.87C216.735,1146.82 216.383,1149.54 215.68,1152.03ZM183.266,1122.92C177.313,1122.92 172.321,1124.84 168.29,1128.68C164.446,1132.34 162.266,1136.88 161.75,1142.32L203.446,1142.32C203.446,1136.93 201.758,1132.43 198.383,1128.82C194.68,1124.88 189.641,1122.92 183.266,1122.92Z" style="fill:rgb(200,206,212);fill-rule:nonzero;"/>
                    <path d="M232.699,1123.62L223.98,1123.62L223.98,1113.07L232.699,1113.07L232.699,1097.32L246.058,1092.19L246.058,1113.07L266.73,1113.07L266.73,1123.62L246.058,1123.62L246.058,1161.03C246.058,1167.35 247.124,1171.85 249.257,1174.53C251.39,1177.2 254.824,1178.53 259.558,1178.53C262.98,1178.53 266.519,1177.67 270.175,1175.93L272.144,1187.67C266.613,1189.08 260.542,1189.78 253.933,1189.78C247.98,1189.78 242.953,1187.57 238.851,1183.14C234.749,1178.71 232.699,1173.12 232.699,1166.37L232.699,1123.62Z" style="fill:rgb(200,206,212);fill-rule:nonzero;"/>
                    <path d="M328.537,1188.38L328.537,1141.06C328.537,1135.43 327.155,1131 324.389,1127.77C321.623,1124.53 317.733,1122.92 312.717,1122.92C309.483,1122.92 306.237,1123.87 302.979,1125.76C299.721,1127.66 297.225,1129.88 295.49,1132.41L295.49,1188.38L282.131,1188.38L282.131,1082.2L295.49,1082.2L295.49,1121.37C297.272,1118.6 300.143,1116.3 304.104,1114.44C308.065,1112.59 312.155,1111.67 316.373,1111.67C324.342,1111.67 330.588,1114.29 335.112,1119.54C339.635,1124.79 341.897,1131.96 341.897,1141.06L341.897,1188.38L328.537,1188.38Z" style="fill:rgb(200,206,212);fill-rule:nonzero;"/>
                    <rect x="399.84" y="1085.37" width="18.281" height="103.008" style="fill:rgb(200,206,212);fill-rule:nonzero;"/>
                    <path d="M438.304,1127.2L429.585,1127.2L429.585,1113.07L438.304,1113.07L438.304,1097.74L455.882,1091.28L455.882,1113.07L476.554,1113.07L476.554,1127.2L455.882,1127.2L455.882,1160.18C455.882,1165.57 456.725,1169.38 458.413,1171.61C460.1,1173.83 463.054,1174.95 467.272,1174.95C471.491,1174.95 475.429,1173.8 479.085,1171.5L479.085,1187.67C475.007,1189.08 469.194,1189.78 461.647,1189.78C454.147,1189.78 448.382,1187.66 444.35,1183.42C440.319,1179.18 438.304,1173.14 438.304,1165.32L438.304,1127.2Z" style="fill:rgb(200,206,212);fill-rule:nonzero;"/>
                    <g transform="matrix(0.755166,0,0,0.755166,-73.9239,758.621)">
                        <g transform="matrix(-0.748075,-0.663615,-0.663615,0.748075,796.63,500.329)">
                            <path d="M-37.785,26.906L-5.794,26.906L10.214,14.344L-10.253,10.57L-37.785,26.906Z" style="fill:rgb(200,206,212);fill-rule:nonzero;"/>
                        </g>
                        <g transform="matrix(1,0,0,1,783.11,494.071)">
                            <path d="M0,30.23L-9.688,0L14.176,20.969L0,30.23Z" style="fill:rgb(224,82,81);fill-rule:nonzero;"/>
                        </g>
                        <g transform="matrix(0,-1,-1,0,766.459,532.494)">
                            <path d="M-2.799,-2.798C-4.344,-2.798 -5.597,-1.545 -5.597,0C-5.597,1.546 -4.344,2.799 -2.799,2.799C-1.253,2.799 0,1.546 0,0C0,-1.545 -1.253,-2.798 -2.799,-2.798" style="fill:rgb(200,206,212);fill-rule:nonzero;"/>
                        </g>
                        <g transform="matrix(0,-1,-1,0,813.827,500.961)">
                            <path d="M-2.998,-2.998C-4.654,-2.998 -5.996,-1.656 -5.996,-0.001C-5.996,1.655 -4.654,2.998 -2.998,2.998C-1.343,2.998 0,1.655 0,-0.001C0,-1.656 -1.343,-2.998 -2.998,-2.998" style="fill:rgb(200,206,212);fill-rule:nonzero;"/>
                        </g>
                        <g transform="matrix(1,0,0,1,790.282,482.713)">
                            <path d="M0,74.355C-20.002,74.355 -34.496,59.861 -34.496,37.105C-34.496,23.836 -29.568,13.467 -21.491,7.155L-32.928,-2.99C-44.246,6.154 -51.454,20.252 -51.454,37.105C-51.454,67.398 -28.408,88.704 0,88.704C8.472,88.704 16.417,86.845 23.427,83.446L18.842,69.136C13.531,72.523 7.115,74.355 0,74.355M0,-14.349C-8.407,-14.349 -16.339,-12.491 -23.336,-9.078L-18.75,5.231C-13.453,1.924 -7.076,0.146 0,0.146C20.015,0.146 34.509,14.35 34.509,37.105C34.509,50.334 29.606,60.77 21.569,67.173L33.099,77.306C44.364,68.135 51.466,54.024 51.466,37.105C51.466,6.958 28.697,-14.349 0,-14.349" style="fill:rgb(200,206,212);fill-rule:nonzero;"/>
                        </g>
                    </g>
                    <path d="M642.426,1189.78L636.028,1189.78L615.356,1143.52L594.755,1189.78L588.286,1189.78L559.88,1113.07L578.372,1113.07L593.489,1158L611.911,1113.07L618.239,1113.07L637.294,1158.28L653.606,1113.07L670.903,1113.07L642.426,1189.78Z" style="fill:rgb(200,206,212);fill-rule:nonzero;"/>
                </g>
            </g>
        </g>
    </g>
</svg>
