<?xml version="1.0" encoding="UTF-8" standalone="no"?>
<!DOCTYPE svg PUBLIC "-//W3C//DTD SVG 1.1//EN" "http://www.w3.org/Graphics/SVG/1.1/DTD/svg11.dtd">
<svg width="100%" height="100%" viewBox="0 0 730 200" version="1.1" xmlns="http://www.w3.org/2000/svg" xmlns:xlink="http://www.w3.org/1999/xlink" xml:space="preserve" xmlns:serif="http://www.serif.com/" style="fill-rule:evenodd;clip-rule:evenodd;stroke-linejoin:round;stroke-miterlimit:2;">
    <g transform="matrix(1,0,0,1,0,-761.892)">
        <g transform="matrix(1.02753,0,0,0.9847,-145.755,372.127)">
            <rect id="Lower-Case" serif:id="Lower Case" x="141.85" y="395.822" width="710.442" height="203.108" style="fill:none;"/>
            <g id="Lower-Case1" serif:id="Lower Case">
                <g transform="matrix(1.26206,0,0,1.31695,-130.635,-167.701)">
                    <clipPath id="_clip1">
                        <path d="M325.945,435.924L325.945,568.866L232.33,568.866L232.33,435.924L325.945,435.924ZM283.752,555.116C289.331,555.116 294.121,554.033 298.129,551.911C302.217,549.747 305.292,546.889 307.376,543.362C309.469,539.821 310.51,536.077 310.51,532.133C310.51,526.939 309.28,522.815 306.926,519.731C304.591,516.671 301.729,514.4 298.347,512.91C295.177,511.513 291.027,510.095 285.895,508.661L285.888,508.659C281.6,507.496 278.206,506.41 275.702,505.394C273.422,504.469 271.52,503.119 270,501.335C268.549,499.631 267.87,497.377 267.87,494.601C267.87,490.898 269.184,487.966 271.866,485.827C274.677,483.584 278.202,482.494 282.419,482.494C286.968,482.494 290.597,483.559 293.273,485.8C295.867,487.973 297.426,490.432 297.88,493.22L298.123,494.709L310.069,494.709L309.831,492.724C309.107,486.693 306.355,481.766 301.57,477.946C296.881,474.203 290.729,472.284 283.085,472.284C277.915,472.284 273.334,473.238 269.338,475.118C265.247,477.044 262.086,479.722 259.84,483.132C257.578,486.565 256.438,490.46 256.438,494.823C256.438,500.094 257.67,504.255 260.022,507.336C262.36,510.4 265.187,512.651 268.492,514.103C271.589,515.462 275.779,516.864 281.066,518.299L281.07,518.3C285.431,519.463 288.845,520.531 291.314,521.511C293.55,522.399 295.425,523.745 296.938,525.553C298.397,527.298 299.079,529.612 299.079,532.466C299.079,536.074 297.746,539.055 295.073,541.406C292.293,543.851 288.507,545.017 283.752,545.017C278.603,545.017 274.664,543.812 271.99,541.238C269.355,538.702 267.857,535.763 267.528,532.404L267.371,530.804L255.704,530.804L255.773,532.644C255.935,536.917 257.226,540.786 259.644,544.252C262.041,547.687 265.329,550.373 269.523,552.29C273.622,554.164 278.363,555.116 283.752,555.116Z"/>
                    </clipPath>
                    <g clip-path="url(#_clip1)">
                        <g transform="matrix(1,0,0,1,-2.84217e-14,-5.80623)">
                            <g transform="matrix(1,0,0,1,311.915,466.638)">
                                <path d="M0,-1.256C-17.74,-24.307 -35.528,-21.126 -35.662,-21.143C-52.767,-21.876 -66.505,-3.766 -67.803,0.465C-73.852,15.211 -64.173,23.051 -64.173,23.051L-45.691,10.675C-45.691,10.675 -34.523,2.553 -21.891,-1.391C-6.117,-6.316 -1.189,-2.569 0,-1.256" style="fill:#7d828a;"/>
                            </g>
                            <g transform="matrix(1,0,0,1,312.05,470.21)">
                                <path d="M0,-1.117C-2.577,-7.254 -12.924,-5.182 -12.924,-5.182C-12.924,-5.182 -7.204,6.137 -7.276,6.129C1.804,4.183 0.073,-1.109 0,-1.117" style="fill:#7d828a;"/>
                            </g>
                        </g>
                        <g transform="matrix(1.13573,0,0,1.0784,286.79,463.417)">
                            <path d="M0,55.002L15.668,7.326L14.955,7.091L1.075,49.326L10.523,-0.542L9.786,-0.681L0.741,47.064L5.505,-0.238L4.759,-0.312L-0.118,48.103L-0.089,1.95L-0.839,1.95L-0.873,55.613L-0.498,55.613L-0.129,55.683L0,55.002Z" style="fill:#7d828a;fill-rule:nonzero;"/>
                        </g>
                        <g transform="matrix(1,0,0,1,276.562,469.064)">
                            <path d="M0,51.655L-11.562,-0.493L-12.294,-0.331L-1.817,46.923L-16.663,4.821L-17.37,5.071L-2.391,47.551L-21.535,9.227L-22.206,9.563L-3.479,47.051L-26.616,12.927L-27.237,13.347L-0.93,52.148L-0.619,51.938L-0.284,51.77L-0.307,51.722L0,51.655Z" style="fill:#7d828a;fill-rule:nonzero;"/>
                        </g>
                        <g transform="matrix(1,0,0,1,277.945,542.586)">
                            <path d="M0,-19.927C0,-19.927 -1.152,-19.734 -1.407,-19.553C-3.049,-18.389 -1.622,-16.073 -1.622,-16.073C-1.622,-16.073 -1.812,-15.292 -1.814,-15.34C-4.057,-15.097 -3.885,-12.465 -3.888,-12.513C-7.978,-11.862 -6.701,-7.765 -6.602,-7.723C-5.611,-2.117 0.104,-1.435 0.107,-1.387C4.257,0.36 6.8,-2.641 6.8,-2.641C6.8,-2.641 7.467,-3.543 7.583,-3.894C7.712,-4.284 7.548,-5.848 7.548,-5.848C7.548,-5.848 8.434,-5.862 8.696,-5.985C8.865,-6.064 9.239,-6.5 9.239,-6.5L10.378,-7.44L11.223,-7.015L13.172,-5.828L14.974,-4.761C14.974,-4.761 15.372,-4.546 15.516,-4.557C15.741,-4.573 16.304,-4.992 16.304,-4.992L17.361,-6.054L17.839,-6.723L18.408,-7.933C18.408,-7.933 18.997,-9.356 18.642,-9.662C18.441,-9.835 17.596,-9.497 17.596,-9.497C17.596,-9.497 17.566,-10.056 17.127,-10.225C16.571,-10.439 15.678,-8.472 15.678,-8.472C15.678,-8.472 15.255,-7.548 14.701,-7.764C14.146,-7.98 12.001,-9.817 12.001,-9.817L10.129,-10.883C10.129,-10.883 9.65,-11.32 9.448,-11.379C8.845,-11.559 6.934,-11.251 6.934,-11.251L6.927,-11.899L8.163,-16.7L8.257,-17.464L8.836,-19.087L8.748,-19.334L7.657,-19.479L7.593,-17.708L6.149,-15.264L5.557,-14.115C5.557,-14.115 4.843,-12.627 4.104,-13.192C4.14,-13.195 1.898,-14.417 1.898,-14.417L1.437,-14.856L1.418,-15.143C1.418,-15.143 2.303,-15.381 1.932,-16.654C1.929,-16.69 1.796,-17.618 1.796,-17.618C1.796,-17.618 3.183,-20.287 0,-19.927" style="fill:#7d828a;fill-rule:nonzero;"/>
                        </g>
                        <g transform="matrix(-0.933119,0.359569,0.359569,0.933119,274.748,521.57)">
                            <path d="M-2.311,4.878L-0.834,4.878L-1.003,-0.678L-1.878,-0.625L-2.311,4.878Z" style="fill:#7d828a;fill-rule:nonzero;"/>
                        </g>
                    </g>
                </g>
                <g transform="matrix(0.973208,0,0,1.01554,142.251,-256.48)">
                    <path d="M87.572,804.997C80.948,804.997 75.116,803.845 70.076,801.541C65.036,799.237 61.076,796.021 58.196,791.893C55.316,787.765 53.78,783.157 53.588,778.069L64.244,778.069C64.724,782.965 66.884,787.261 70.724,790.957C74.564,794.653 80.18,796.501 87.572,796.501C94.388,796.501 99.788,794.749 103.772,791.245C107.756,787.741 109.748,783.301 109.748,777.925C109.748,773.605 108.644,770.125 106.436,767.485C104.228,764.845 101.492,762.877 98.228,761.581C94.964,760.285 90.452,758.869 84.692,757.333C77.972,755.509 72.644,753.733 68.708,752.005C64.772,750.277 61.412,747.589 58.628,743.941C55.844,740.293 54.452,735.349 54.452,729.109C54.452,723.925 55.796,719.293 58.484,715.213C61.172,711.133 64.964,707.941 69.86,705.637C74.756,703.333 80.372,702.181 86.708,702.181C96.02,702.181 103.532,704.461 109.244,709.021C114.956,713.581 118.244,719.461 119.108,726.661L108.164,726.661C107.492,722.533 105.236,718.861 101.396,715.645C97.556,712.429 92.372,710.821 85.844,710.821C79.796,710.821 74.756,712.429 70.724,715.645C66.692,718.861 64.676,723.253 64.676,728.821C64.676,733.045 65.78,736.453 67.988,739.045C70.196,741.637 72.956,743.605 76.268,744.949C79.58,746.293 84.068,747.733 89.732,749.269C96.26,751.093 101.54,752.893 105.572,754.669C109.604,756.445 113.012,759.157 115.796,762.805C118.58,766.453 119.972,771.349 119.972,777.493C119.972,782.197 118.724,786.661 116.228,790.885C113.732,795.109 110.036,798.517 105.14,801.109C100.244,803.701 94.388,804.997 87.572,804.997Z" style="fill:#c8ced4;fill-rule:nonzero;"/>
                    <path d="M207.668,760.645C207.668,764.101 207.572,766.741 207.38,768.565L142.148,768.565C142.436,774.517 143.876,779.605 146.468,783.829C149.06,788.053 152.468,791.245 156.692,793.405C160.916,795.565 165.524,796.645 170.516,796.645C177.044,796.645 182.54,795.061 187.004,791.893C191.468,788.725 194.42,784.453 195.86,779.077L206.516,779.077C204.596,786.757 200.492,793.021 194.204,797.869C187.916,802.717 180.02,805.141 170.516,805.141C163.124,805.141 156.5,803.485 150.644,800.173C144.788,796.861 140.204,792.157 136.892,786.061C133.58,779.965 131.924,772.837 131.924,764.677C131.924,756.517 133.556,749.365 136.82,743.221C140.084,737.077 144.644,732.373 150.5,729.109C156.356,725.845 163.028,724.213 170.516,724.213C178.004,724.213 184.556,725.845 190.172,729.109C195.788,732.373 200.108,736.765 203.132,742.285C206.156,747.805 207.668,753.925 207.668,760.645ZM197.444,760.357C197.54,754.501 196.364,749.509 193.916,745.381C191.468,741.253 188.132,738.133 183.908,736.021C179.684,733.909 175.076,732.853 170.084,732.853C162.596,732.853 156.212,735.253 150.932,740.053C145.652,744.853 142.724,751.621 142.148,760.357L197.444,760.357Z" style="fill:#c8ced4;fill-rule:nonzero;"/>
                    <path d="M236.324,733.861L236.324,782.677C236.324,787.477 237.236,790.789 239.06,792.613C240.884,794.437 244.1,795.349 248.708,795.349L257.924,795.349L257.924,803.989L247.124,803.989C240.02,803.989 234.74,802.333 231.284,799.021C227.828,795.709 226.1,790.261 226.1,782.677L226.1,733.861L215.156,733.861L215.156,725.365L226.1,725.365L226.1,705.637L236.324,705.637L236.324,725.365L257.924,725.365L257.924,733.861L236.324,733.861Z" style="fill:#c8ced4;fill-rule:nonzero;"/>
                    <path d="M309.044,723.925C314.996,723.925 320.348,725.173 325.1,727.669C329.852,730.165 333.596,733.981 336.332,739.117C339.068,744.253 340.436,750.517 340.436,757.909L340.436,803.989L330.5,803.989L330.5,759.061C330.5,750.517 328.364,743.989 324.092,739.477C319.82,734.965 313.988,732.709 306.596,732.709C299.012,732.709 292.964,735.109 288.452,739.909C283.94,744.709 281.684,751.765 281.684,761.077L281.684,803.989L271.604,803.989L271.604,697.429L281.684,697.429L281.684,738.757C284.18,734.053 287.852,730.405 292.7,727.813C297.548,725.221 302.996,723.925 309.044,723.925Z" style="fill:#c8ced4;fill-rule:nonzero;"/>
                    <rect x="395.732" y="703.909" width="16.416" height="100.08" style="fill:#c8ced4;fill-rule:nonzero;"/>
                    <path d="M450.02,738.037L450.02,781.957C450.02,784.933 450.716,787.069 452.108,788.365C453.5,789.661 455.876,790.309 459.236,790.309L469.316,790.309L469.316,803.989L456.356,803.989C448.964,803.989 443.3,802.261 439.364,798.805C435.428,795.349 433.46,789.733 433.46,781.957L433.46,738.037L424.1,738.037L424.1,724.645L433.46,724.645L433.46,704.917L450.02,704.917L450.02,724.645L469.316,724.645L469.316,738.037L450.02,738.037Z" style="fill:#c8ced4;fill-rule:nonzero;"/>
                    <g transform="matrix(0.79431,0,0,0.79431,-111.27,351.403)">
                        <g transform="matrix(-0.748075,-0.663615,-0.663615,0.748075,796.63,500.329)">
                            <path d="M-37.785,26.906L-5.794,26.906L10.214,14.344L-10.253,10.57L-37.785,26.906Z" style="fill:#c8ced4;fill-rule:nonzero;"/>
                        </g>
                        <g transform="matrix(1,0,0,1,783.11,494.071)">
                            <path d="M0,30.23L-9.688,0L14.176,20.969L0,30.23Z" style="fill:#e05251;fill-rule:nonzero;"/>
                        </g>
                        <g transform="matrix(0,-1,-1,0,766.459,532.494)">
                            <path d="M-2.799,-2.798C-4.344,-2.798 -5.597,-1.545 -5.597,0C-5.597,1.546 -4.344,2.799 -2.799,2.799C-1.253,2.799 0,1.546 0,0C0,-1.545 -1.253,-2.798 -2.799,-2.798" style="fill:#c8ced4;fill-rule:nonzero;"/>
                        </g>
                        <g transform="matrix(0,-1,-1,0,813.827,500.961)">
                            <path d="M-2.998,-2.998C-4.654,-2.998 -5.996,-1.656 -5.996,-0.001C-5.996,1.655 -4.654,2.998 -2.998,2.998C-1.343,2.998 0,1.655 0,-0.001C0,-1.656 -1.343,-2.998 -2.998,-2.998" style="fill:#c8ced4;fill-rule:nonzero;"/>
                        </g>
                        <g transform="matrix(1,0,0,1,790.282,482.713)">
                            <path d="M0,74.355C-20.002,74.355 -34.496,59.861 -34.496,37.105C-34.496,23.836 -29.568,13.467 -21.491,7.155L-32.928,-2.99C-44.246,6.154 -51.454,20.252 -51.454,37.105C-51.454,67.398 -28.408,88.704 0,88.704C8.472,88.704 16.417,86.845 23.427,83.446L18.842,69.136C13.531,72.523 7.115,74.355 0,74.355M0,-14.349C-8.407,-14.349 -16.339,-12.491 -23.336,-9.078L-18.75,5.231C-13.453,1.924 -7.076,0.146 0,0.146C20.015,0.146 34.509,14.35 34.509,37.105C34.509,50.334 29.606,60.77 21.569,67.173L33.099,77.306C44.364,68.135 51.466,54.024 51.466,37.105C51.466,6.958 28.697,-14.349 0,-14.349" style="fill:#c8ced4;fill-rule:nonzero;"/>
                        </g>
                    </g>
                    <path d="M677.108,724.645L652.484,803.989L635.204,803.989L619.22,745.381L603.236,803.989L585.956,803.989L561.188,724.645L577.892,724.645L594.452,788.437L611.3,724.645L628.436,724.645L644.564,788.149L660.98,724.645L677.108,724.645Z" style="fill:#c8ced4;fill-rule:nonzero;"/>
                </g>
            </g>
        </g>
    </g>
</svg>
