<?xml version="1.0" encoding="UTF-8" standalone="no"?>
<!DOCTYPE svg PUBLIC "-//W3C//DTD SVG 1.1//EN" "http://www.w3.org/Graphics/SVG/1.1/DTD/svg11.dtd">
<svg width="100%" height="100%" viewBox="0 0 730 200" version="1.1" xmlns="http://www.w3.org/2000/svg" xmlns:xlink="http://www.w3.org/1999/xlink" xml:space="preserve" xmlns:serif="http://www.serif.com/" style="fill-rule:evenodd;clip-rule:evenodd;stroke-linejoin:round;stroke-miterlimit:2;">
    <g transform="matrix(1,0,0,1,0,-510)">
        <g transform="matrix(1.02753,0,0,0.9847,-145.755,120.235)">
            <rect id="Grey" x="141.85" y="395.822" width="710.442" height="203.108" style="fill:none;"/>
            <g id="Grey1" serif:id="Grey">
                <g transform="matrix(0.987511,0,0,1.01554,2.31493,-8.18138)">
                    <g transform="matrix(0.985516,0,0,1,206.944,460.884)">
                        <path d="M0,103.487C-20.291,103.487 -33.625,91.892 -34.206,76.383L-23.479,76.383C-22.61,84.791 -16.378,94.935 0,94.935C14.059,94.935 22.321,86.675 22.321,76.239C22.321,46.382 -33.336,65.223 -33.336,27.105C-33.336,11.45 -20.437,0 -0.87,0C18.408,0 30.003,10.725 31.742,24.64L20.727,24.64C19.567,17.537 12.755,8.841 -1.304,8.696C-13.189,8.552 -23.045,15.073 -23.045,26.814C-23.045,56.092 32.612,38.119 32.612,75.804C32.612,89.574 21.452,103.487 0,103.487" style="fill:#c8ced4;fill-rule:nonzero;"/>
                    </g>
                    <g transform="matrix(0.985516,0,0,1,300.113,554.683)">
                        <path d="M0,-84.645L-42.757,-84.645L-42.757,-46.814L-4.348,-46.814L-4.348,-38.408L-42.757,-38.408L-42.757,0.001L0,0.001L0,8.407L-52.903,8.407L-52.903,-93.052L0,-93.052L0,-84.645Z" style="fill:#c8ced4;fill-rule:nonzero;"/>
                    </g>
                    <g transform="matrix(0.985516,0,0,1,310.084,563.357)">
                        <path d="M0,-101.313L66.528,-101.313L66.528,-92.907L38.409,-92.907L38.409,0L28.263,0L28.263,-92.907L0,-92.907L0,-101.313Z" style="fill:#c8ced4;fill-rule:nonzero;"/>
                    </g>
                    <g transform="matrix(0.985516,0,0,1,447.846,509.44)">
                        <path d="M0,6.521L-54.933,6.521L-54.933,53.917L-65.078,53.917L-65.078,-47.396L-54.933,-47.396L-54.933,-1.885L0,-1.885L0,-47.396L10.145,-47.396L10.145,53.917L0,53.917L0,6.521Z" style="fill:#c8ced4;fill-rule:nonzero;"/>
                    </g>
                    <g transform="matrix(0.985516,0,0,1,-145.153,-6.51265)">
                        <g transform="matrix(1,0,0,1,342.139,442.387)">
                            <path d="M0,63.667L-4.243,44.548C-4.493,45.023 -4.717,45.51 -4.915,46.037L-1.212,62.705C-0.83,63.048 -0.421,63.377 0,63.667M3.65,80.111C2.899,79.874 2.148,79.637 1.41,79.373L1.752,80.361L1.226,79.308C0.777,79.162 0.33,79.005 -0.119,78.833L0.316,79.703L-0.329,78.754C-0.87,78.557 -1.41,78.346 -1.95,78.122L3.676,86.423L4.085,86.146L4.533,85.922L4.506,85.856L4.902,85.777L3.65,80.111ZM4.493,-18.803C-18.341,-17.341 -36.143,4.282 -37.855,9.855C-45.827,29.291 -33.072,39.621 -33.072,39.621C-33.072,39.621 -31.729,38.646 -29.699,37.196L-20.16,51.255C-20.16,50.702 -20.133,50.162 -20.081,49.621L-28.896,36.616C-27.262,35.444 -25.285,34.034 -23.229,32.558L-18.42,42.19C-18.275,41.781 -18.104,41.373 -17.919,40.964L-22.413,31.978C-20.502,30.595 -18.539,29.198 -16.734,27.92L-14.257,34.93C-14.033,34.626 -13.782,34.337 -13.532,34.06L-15.904,27.327C-14.31,26.194 -12.873,25.179 -11.766,24.402C-11.2,24.006 -10.594,23.598 -9.987,23.176L-8.564,29.606C-8.274,29.396 -7.985,29.198 -7.682,29.014L-9.104,22.584C-2.016,17.813 7.932,12.003 22.637,7.404C42.48,1.211 49.292,5.428 51.243,7.325C51.256,7.352 51.282,7.312 51.269,7.299C27.987,-22.756 7.537,-19.001 4.493,-18.803" style="fill:#7d828a;fill-rule:nonzero;"/>
                        </g>
                        <g transform="matrix(1,0,0,1,359.954,478.476)">
                            <path d="M0,34.443C-0.171,34.403 -0.343,34.35 -0.5,34.297L-0.079,-0.105C0.237,-0.066 0.554,-0.013 0.87,0.04L0.369,34.548C0.25,34.508 0.119,34.482 0,34.443" style="fill:#7d828a;fill-rule:nonzero;"/>
                        </g>
                        <g transform="matrix(0.996695,-0.081235,-0.081235,-0.996695,361.427,465.578)">
                            <path d="M-0.421,-0.017C-0.748,0.036 -1.061,0.089 -1.387,0.141L-0.421,10.361L0.563,10.28L-0.421,-0.017Z" style="fill:#7d828a;fill-rule:nonzero;"/>
                        </g>
                        <g transform="matrix(0.100222,-0.994965,-0.994965,-0.100222,379.686,500.323)">
                            <path d="M-14.7,17.225L19.215,17.225C19.144,16.886 19.044,16.559 18.957,16.246L-14.866,16.242C-14.819,16.564 -14.76,16.902 -14.7,17.225" style="fill:#7d828a;fill-rule:nonzero;"/>
                        </g>
                        <g transform="matrix(0.999602,0.0282181,0.0282181,-0.999602,366.575,466.543)">
                            <path d="M0.191,-0.003C-0.127,0.067 -0.445,0.124 -0.777,0.181L0.191,13.535L1.168,13.47L0.191,-0.003Z" style="fill:#7d828a;fill-rule:nonzero;"/>
                        </g>
                        <g transform="matrix(0.206212,-0.978507,-0.978507,-0.206212,381.105,504.95)">
                            <path d="M-12.341,16.147L19.99,16.147C19.837,15.792 19.663,15.459 19.504,15.129L-12.405,15.11C-12.384,15.451 -12.361,15.792 -12.341,16.147" style="fill:#7d828a;fill-rule:nonzero;"/>
                        </g>
                        <g transform="matrix(1,0,0,1,373.433,539.468)">
                            <path d="M0,4.771C0.461,5.179 -0.316,7.05 -0.316,7.05L-1.067,8.644L-1.687,9.527L-3.083,10.924C-3.083,10.924 -3.821,11.477 -4.124,11.503C-4.309,11.517 -4.836,11.227 -4.836,11.227L-7.208,9.817L-9.777,8.262L-10.897,7.696L-12.399,8.934C-12.399,8.934 -12.887,9.514 -13.11,9.62C-13.453,9.778 -14.626,9.804 -14.626,9.804C-14.626,9.804 -14.402,11.86 -14.573,12.374C-14.731,12.834 -15.601,14.02 -15.601,14.02C-15.601,14.02 -18.961,17.973 -24.429,15.68C-24.429,15.615 -31.966,14.719 -33.27,7.327C-33.402,7.274 -35.076,1.872 -29.687,1.015C-29.687,1.082 -29.91,-2.384 -26.959,-2.713C-26.946,-2.713 -26.708,-3.675 -26.708,-3.675C-26.708,-3.675 -28.58,-6.732 -26.418,-8.26C-26.089,-8.498 -24.561,-8.749 -24.561,-8.749C-20.371,-9.222 -22.202,-5.705 -22.202,-5.705C-22.202,-5.705 -22.031,-4.493 -22.018,-4.44C-21.53,-2.766 -22.703,-2.45 -22.703,-2.45L-22.676,-2.068L-22.07,-1.488C-22.07,-1.488 -19.159,0.093 -19.159,0.12C-18.184,0.871 -17.248,-1.093 -17.248,-1.093L-16.47,-2.608L-14.56,-5.836L-14.481,-8.168L-14.217,-8.129L-14.151,-13.202C-13.334,-12.964 -12.531,-12.727 -11.753,-12.477L-13.071,-8.59L-13.176,-7.984L-13.044,-7.971L-12.926,-7.641L-13.69,-5.507L-13.809,-4.505L-15.443,1.819L-15.43,2.675C-15.43,2.675 -12.913,2.267 -12.122,2.504C-11.846,2.583 -11.226,3.164 -11.226,3.164L-8.749,4.573C-8.749,4.573 -5.929,6.984 -5.191,7.274C-4.467,7.564 -3.914,6.338 -3.914,6.338C-3.914,6.338 -2.728,3.743 -2.003,4.033C-1.423,4.256 -1.384,4.995 -1.384,4.995C-1.384,4.995 -0.264,4.546 0,4.771" style="fill:#7d828a;fill-rule:nonzero;"/>
                        </g>
                        <g transform="matrix(-0.957296,-0.289109,-0.289109,0.957296,361.789,512.778)">
                            <path d="M-4.472,-27.975C-4.817,-27.652 -5.149,-27.326 -5.444,-26.989L-4.472,0.558C-4.127,0.553 -3.781,0.547 -3.426,0.558L-4.472,-27.975Z" style="fill:#7d828a;fill-rule:nonzero;"/>
                        </g>
                        <g transform="matrix(0.982471,0.186418,0.186418,-0.982471,376.921,453.582)">
                            <path d="M-1.457,0.069L-0.465,0.069L-0.769,-15.506C-1.094,-15.42 -1.429,-15.349 -1.764,-15.279L-1.457,0.069Z" style="fill:#7d828a;fill-rule:nonzero;"/>
                        </g>
                        <g transform="matrix(-0.3234,0.946262,0.946262,0.3234,384.108,471.515)">
                            <path d="M-5.879,-3.32L2.392,-3.32C2.282,-3.65 2.172,-3.98 2.075,-4.306L-5.863,-4.304L-5.879,-3.32Z" style="fill:#7d828a;fill-rule:nonzero;"/>
                        </g>
                        <g transform="matrix(-0.933081,0.359668,0.359668,0.933081,344.654,529.281)">
                            <path d="M-3.044,6.427L-1.098,6.427L-1.322,-0.893L-2.476,-0.823L-3.044,6.427Z" style="fill:#7d828a;fill-rule:nonzero;"/>
                        </g>
                        <g transform="matrix(1,0,0,1,393.804,456.336)">
                            <path d="M0,-1.472C-3.396,-9.558 -17.029,-6.829 -17.029,-6.829C-17.029,-6.829 -9.492,8.086 -9.587,8.075C2.377,5.512 0.095,-1.461 0,-1.472" style="fill:#7d828a;fill-rule:nonzero;"/>
                        </g>
                    </g>
                </g>
                <g transform="matrix(0.987511,0,0,1.01554,12.047,-8.18138)">
                    <g transform="matrix(0.985516,0,0,1,-5.35762,36.3208)">
                        <rect x="502.247" y="426.836" width="16.523" height="100.733" style="fill:#c8ced4;"/>
                    </g>
                    <g transform="matrix(0.985516,0,0,1,514.39,563.89)">
                        <path d="M0,-100.733L70.296,-100.733L70.296,-87.254L43.481,-87.254L43.481,0L26.958,0L26.958,-87.254L0,-87.254L0,-100.733Z" style="fill:#c8ced4;fill-rule:nonzero;"/>
                    </g>
                    <g transform="matrix(0.985516,0,0,1,684.602,564.035)">
                        <path d="M0,-100.878L17.538,-100.878L38.409,-18.842L61.02,-100.878L79.572,-100.878L100.589,-19.277L121.605,-100.878L139.288,-100.878L109.43,-0.145L90.732,-0.145L69.571,-76.383L47.105,-0.145L28.553,0L0,-100.878Z" style="fill:#c8ced4;fill-rule:nonzero;"/>
                    </g>
                    <g transform="matrix(0.985516,0,0,1,-145.153,-6.51265)">
                        <g transform="matrix(-0.748075,-0.663615,-0.663615,0.748075,796.63,500.329)">
                            <path d="M-37.785,26.906L-5.794,26.906L10.214,14.344L-10.253,10.57L-37.785,26.906Z" style="fill:#c8ced4;fill-rule:nonzero;"/>
                        </g>
                        <g transform="matrix(1,0,0,1,783.11,494.071)">
                            <path d="M0,30.23L-9.688,0L14.176,20.969L0,30.23Z" style="fill:#e05251;fill-rule:nonzero;"/>
                        </g>
                        <g transform="matrix(0,-1,-1,0,766.459,532.494)">
                            <path d="M-2.799,-2.798C-4.344,-2.798 -5.597,-1.545 -5.597,0C-5.597,1.546 -4.344,2.799 -2.799,2.799C-1.253,2.799 0,1.546 0,0C0,-1.545 -1.253,-2.798 -2.799,-2.798" style="fill:#c8ced4;fill-rule:nonzero;"/>
                        </g>
                        <g transform="matrix(0,-1,-1,0,813.827,500.961)">
                            <path d="M-2.998,-2.998C-4.654,-2.998 -5.996,-1.656 -5.996,-0.001C-5.996,1.655 -4.654,2.998 -2.998,2.998C-1.343,2.998 0,1.655 0,-0.001C0,-1.656 -1.343,-2.998 -2.998,-2.998" style="fill:#c8ced4;fill-rule:nonzero;"/>
                        </g>
                        <g transform="matrix(1,0,0,1,790.282,482.713)">
                            <path d="M0,74.355C-20.002,74.355 -34.496,59.861 -34.496,37.105C-34.496,23.836 -29.568,13.467 -21.491,7.155L-32.928,-2.99C-44.246,6.154 -51.454,20.252 -51.454,37.105C-51.454,67.398 -28.408,88.704 0,88.704C8.472,88.704 16.417,86.845 23.427,83.446L18.842,69.136C13.531,72.523 7.115,74.355 0,74.355M0,-14.349C-8.407,-14.349 -16.339,-12.491 -23.336,-9.078L-18.75,5.231C-13.453,1.924 -7.076,0.146 0,0.146C20.015,0.146 34.509,14.35 34.509,37.105C34.509,50.334 29.606,60.77 21.569,67.173L33.099,77.306C44.364,68.135 51.466,54.024 51.466,37.105C51.466,6.958 28.697,-14.349 0,-14.349" style="fill:#c8ced4;fill-rule:nonzero;"/>
                        </g>
                    </g>
                </g>
            </g>
        </g>
    </g>
</svg>
