<?xml version="1.0" standalone="no"?>
<!DOCTYPE svg PUBLIC "-//W3C//DTD SVG 20010904//EN"
 "http://www.w3.org/TR/2001/REC-SVG-20010904/DTD/svg10.dtd">
<svg version="1.0" xmlns="http://www.w3.org/2000/svg"
 width="1000.000000pt" height="1000.000000pt" viewBox="0 0 1000.000000 1000.000000"
 preserveAspectRatio="xMidYMid meet">
<metadata>
Created by potrace 1.14, written by Peter Selinger 2001-2017
</metadata>
<g transform="translate(0.000000,1000.000000) scale(0.100000,-0.100000)"
fill="#000000" stroke="none">
<path d="M2253 9989 c-65 -8 -248 -38 -316 -53 -364 -80 -789 -295 -1067 -540
-48 -43 -218 -213 -261 -261 -98 -111 -236 -312 -307 -446 -22 -42 -45 -84
-51 -95 -60 -105 -160 -402 -196 -579 -24 -121 -29 -148 -45 -285 -4 -42 -7
-1276 -6 -2780 2 -2443 4 -2714 19 -2795 8 -49 18 -106 22 -125 3 -19 8 -42
10 -50 2 -8 7 -31 10 -50 3 -19 10 -46 15 -60 5 -14 19 -59 30 -100 133 -463
450 -923 861 -1247 149 -118 456 -293 609 -348 153 -55 196 -69 295 -94 61
-16 153 -36 205 -45 52 -8 115 -19 140 -23 67 -11 5431 -13 5515 -2 185 24
237 33 352 59 424 99 840 331 1157 644 132 131 162 165 242 271 289 382 457
813 503 1285 10 108 9 5457 -1 5505 -4 17 -12 62 -17 100 -42 277 -134 554
-268 805 -80 149 -213 343 -313 455 -46 52 -215 221 -260 260 -143 124 -341
254 -525 345 -133 65 -170 81 -275 116 -25 9 -54 19 -65 24 -66 26 -261 71
-420 98 -91 15 -340 16 -2810 18 -1490 1 -2742 -2 -2782 -7z"/>
</g>
</svg>
